<svg width="32" height="32" viewBox="0 0 32 32" fill="none" xmlns="http://www.w3.org/2000/svg">
<path d="M0 1.06667C0 0.783769 0.112384 0.512458 0.312429 0.312419C0.512474 0.112381 0.783793 0 1.0667 0H4.2668C4.50474 6.57312e-05 4.73583 0.0796815 4.92331 0.226186C5.1108 0.372691 5.24392 0.577672 5.3015 0.808533L6.16552 4.26667H30.9343C31.0909 4.26681 31.2456 4.30145 31.3873 4.36811C31.5291 4.43477 31.6544 4.53183 31.7544 4.65238C31.8543 4.77294 31.9266 4.91403 31.9659 5.06564C32.0052 5.21725 32.0106 5.37565 31.9818 5.5296L28.7817 22.5963C28.7359 22.8407 28.6062 23.0615 28.4149 23.2204C28.2237 23.3793 27.9829 23.4664 27.7342 23.4667H8.5336C8.28491 23.4664 8.04412 23.3793 7.85285 23.2204C7.66158 23.0615 7.53186 22.8407 7.4861 22.5963L4.28813 5.5616L3.43477 2.13333H1.0667C0.783793 2.13333 0.512474 2.02095 0.312429 1.82091C0.112384 1.62088 0 1.34956 0 1.06667ZM10.667 23.4667C9.53537 23.4667 8.45009 23.9162 7.64991 24.7163C6.84973 25.5165 6.4002 26.6017 6.4002 27.7333C6.4002 28.8649 6.84973 29.9502 7.64991 30.7503C8.45009 31.5505 9.53537 32 10.667 32C11.7986 32 12.8839 31.5505 13.6841 30.7503C14.4843 29.9502 14.9338 28.8649 14.9338 27.7333C14.9338 26.6017 14.4843 25.5165 13.6841 24.7163C12.8839 23.9162 11.7986 23.4667 10.667 23.4667ZM25.6008 23.4667C24.4692 23.4667 23.3839 23.9162 22.5837 24.7163C21.7835 25.5165 21.334 26.6017 21.334 27.7333C21.334 28.8649 21.7835 29.9502 22.5837 30.7503C23.3839 31.5505 24.4692 32 25.6008 32C26.7324 32 27.8177 31.5505 28.6179 30.7503C29.4181 29.9502 29.8676 28.8649 29.8676 27.7333C29.8676 26.6017 29.4181 25.5165 28.6179 24.7163C27.8177 23.9162 26.7324 23.4667 25.6008 23.4667ZM10.667 25.6C11.2328 25.6 11.7754 25.8248 12.1755 26.2248C12.5756 26.6249 12.8004 27.1675 12.8004 27.7333C12.8004 28.2991 12.5756 28.8418 12.1755 29.2418C11.7754 29.6419 11.2328 29.8667 10.667 29.8667C10.1012 29.8667 9.55855 29.6419 9.15846 29.2418C8.75837 28.8418 8.5336 28.2991 8.5336 27.7333C8.5336 27.1675 8.75837 26.6249 9.15846 26.2248C9.55855 25.8248 10.1012 25.6 10.667 25.6ZM25.6008 25.6C26.1666 25.6 26.7092 25.8248 27.1093 26.2248C27.5094 26.6249 27.7342 27.1675 27.7342 27.7333C27.7342 28.2991 27.5094 28.8418 27.1093 29.2418C26.7092 29.6419 26.1666 29.8667 25.6008 29.8667C25.035 29.8667 24.4923 29.6419 24.0923 29.2418C23.6922 28.8418 23.4674 28.2991 23.4674 27.7333C23.4674 27.1675 23.6922 26.6249 24.0923 26.2248C24.4923 25.8248 25.035 25.6 25.6008 25.6Z" fill="#111111"/>
</svg>
